<svg width="64" height="64" viewBox="0 0 64 64" fill="none" xmlns="http://www.w3.org/2000/svg">
  <rect width="64" height="64" rx="12" fill="#166534"/>
  <!-- Centered Icon (Simplified) -->
  <g transform="translate(7, 7)">
    <path d="M25 50 C 15 40, 5 25, 5 15 C 5 8, 12 2, 25 15 C 38 2, 45 8, 45 15 C 45 25, 35 40, 25 50 Z" fill="white"/>
    <path d="M25 50 L 25 15" stroke="#166534" stroke-width="2" stroke-linecap="round"/>
    <path d="M25 40 Q 15 35 15 25" stroke="#166534" stroke-width="2" stroke-linecap="round"/>
    <path d="M25 40 Q 35 35 35 25" stroke="#166534" stroke-width="2" stroke-linecap="round"/>
    <path d="M25 15 C 20 10, 20 0, 25 2 C 30 0, 30 10, 25 15" fill="#4ade80"/>
  </g>
</svg>
