<svg width="200" height="60" viewBox="0 0 200 60" fill="none" xmlns="http://www.w3.org/2000/svg">
  <g transform="translate(10, 5)">
    <path d="M25 50 C 15 40, 5 25, 5 15 C 5 8, 12 2, 25 15 C 38 2, 45 8, 45 15 C 45 25, 35 40, 25 50 Z" fill="#166534"/>
    <path d="M25 50 L 25 15" stroke="#4ade80" stroke-width="2" stroke-linecap="round"/>
    <path d="M25 40 Q 15 35 15 25" stroke="#4ade80" stroke-width="2" stroke-linecap="round"/>
    <path d="M25 30 Q 18 25 18 18" stroke="#4ade80" stroke-width="2" stroke-linecap="round"/>
    <path d="M25 40 Q 35 35 35 25" stroke="#4ade80" stroke-width="2" stroke-linecap="round"/>
    <path d="M25 30 Q 32 25 32 18" stroke="#4ade80" stroke-width="2" stroke-linecap="round"/>
    <path d="M25 15 C 20 10, 20 0, 25 2 C 30 0, 30 10, 25 15" fill="#22c55e"/>
  </g>
  <g transform="translate(65, 38)">
    <text font-family="Arial, sans-serif" font-weight="bold" font-size="28" fill="#166534">Umbrella</text>
  </g>
</svg>
